<?xml version="1.0" encoding="utf-8"?>
<!-- Generator: Adobe Illustrator 19.0.0, SVG Export Plug-In . SVG Version: 6.00 Build 0)  -->
<svg version="1.1" id="Layer_1" xmlns="http://www.w3.org/2000/svg" xmlns:xlink="http://www.w3.org/1999/xlink" x="0px" y="0px"
	 viewBox="-49.3 9.3 110.3 49.6" style="enable-background:new -49.3 9.3 110.3 49.6;" xml:space="preserve">
<style type="text/css">
	.st0{fill:url(#XMLID_6_);}
	.st1{fill:#50AF1E;}
</style>
<g id="XMLID_1_">
	<g id="XMLID_5_">
		<g id="XMLID_74_">
			<g id="XMLID_77_">
				
					<linearGradient id="XMLID_6_" gradientUnits="userSpaceOnUse" x1="5.75" y1="63" x2="5.75" y2="17.8" gradientTransform="matrix(1 0 0 -1 0 74)">
					<stop  offset="0.3349" style="stop-color:#F7E315"/>
					<stop  offset="0.4064" style="stop-color:#F2E215"/>
					<stop  offset="0.494" style="stop-color:#E3E015"/>
					<stop  offset="0.5901" style="stop-color:#CADC15"/>
					<stop  offset="0.6922" style="stop-color:#A7D715"/>
					<stop  offset="0.7992" style="stop-color:#7AD115"/>
					<stop  offset="0.9087" style="stop-color:#45C915"/>
					<stop  offset="0.9434" style="stop-color:#32C615"/>
					<stop  offset="0.9561" style="stop-color:#30DF15"/>
					<stop  offset="0.9697" style="stop-color:#2EF115"/>
					<stop  offset="0.984" style="stop-color:#2DFB15"/>
					<stop  offset="1" style="stop-color:#2DFF15"/>
					<stop  offset="1" style="stop-color:#F2E21D"/>
				</linearGradient>
				<path id="XMLID_47_" class="st0" d="M55.1,53.6c-1.3-0.9-3-1.7-5-2.7c-0.3-0.2-0.7-0.3-1-0.5V27.6L26.4,11L15,19.3L3.7,11
					l-11.2,8.2L-18.8,11l-22.8,16.6v24.7c-0.8,0.4-1.6,0.8-2.2,1.3c-2.5,1.5-4,2.5-4.2,2.6c0.2-0.1,1.8-0.7,4.5-1.8
					c1.4-0.6,3.2-1.2,5.2-1.9c2-0.8,4.3-1.4,6.8-2.1c0.6-0.2,1.3-0.4,1.9-0.6c0.7-0.2,1.3-0.3,2-0.5c1.4-0.3,2.8-0.7,4.2-1
					c1.4-0.3,3-0.5,4.5-0.8s3.1-0.6,4.7-0.8c1.6-0.2,3.2-0.4,4.8-0.6c1.6-0.2,3.3-0.3,4.9-0.4c0.8-0.1,1.7-0.1,2.5-0.2
					c0.9,0,1.7,0,2.6-0.1c1.7-0.1,3.4-0.1,5.1-0.1s3.4,0.1,5.1,0.1c0.9,0,1.7,0,2.6,0.1c0.8,0.1,1.7,0.1,2.5,0.2
					c1.7,0.2,3.3,0.2,5,0.4c1.6,0.2,3.3,0.4,4.8,0.6c1.6,0.2,3.1,0.5,4.7,0.8c1.5,0.3,3,0.5,4.5,0.8c1.4,0.3,2.8,0.7,4.2,1
					c0.7,0.1,1.3,0.3,2,0.5c0.6,0.2,1.3,0.4,1.9,0.6c2.5,0.8,4.8,1.4,6.8,2.1c2,0.7,3.8,1.3,5.2,1.9c2.7,1.1,4.3,1.8,4.5,1.8
					C59.1,56,57.7,55.1,55.1,53.6z M-24.1,45.2c-1.5,0.5-2.9,0.9-4.2,1.4c-0.7,0.2-1.3,0.4-2,0.7c-0.6,0.3-1.3,0.5-1.9,0.8
					c-0.6,0.3-1.2,0.5-1.8,0.7V31.5l15.2-11.1l4.8,3.5l-5.1,3.7v16.2c-0.2,0-0.3,0.1-0.5,0.1C-21.1,44.4-22.6,44.7-24.1,45.2z
					 M13.5,41.3c-0.9-0.1-1.7-0.1-2.6-0.1c-1.8-0.1-3.5-0.1-5.2-0.2c-1.7,0.1-3.5,0.1-5.2,0.2c-0.9,0-1.7,0.1-2.6,0.1
					c-0.9,0.1-1.7,0.2-2.6,0.3c-1.7,0.2-3.5,0.3-5.1,0.6c-0.5,0.1-1.1,0.2-1.6,0.3v-11l3.9-2.9l6.4-4.7l4.8-3.5L8.6,24l6.4,4.7
					l3.8,2.8v10.3c-0.9-0.1-1.8-0.2-2.7-0.3C15.2,41.4,14.4,41.3,13.5,41.3z M39.6,46.5c-1.4-0.4-2.8-0.9-4.2-1.4
					c-1.5-0.4-3-0.8-4.5-1.2s-2.9-0.8-4.5-1V27.6l-5-3.6l4.9-3.6l15.2,11.1v15.7C40.9,47,40.3,46.7,39.6,46.5z"/>
			</g>
		</g>
	</g>
</g>
<g id="XMLID_3_">
	<path id="XMLID_4_" class="st1" d="M-27.7,54.3c0-0.3,0-0.5-0.1-0.6s-0.2-0.2-0.4-0.2h-0.1v-0.2h3.5c0.5,0,0.7,0.2,0.7,0.6v0.7
		h-0.2c0-0.3-0.1-0.6-0.3-0.7s-0.4-0.2-0.7-0.2h-1.3v2h2.1v0.4h-2.1v2.2h1.4c0.3,0,0.6-0.1,0.8-0.2c0.2-0.1,0.4-0.4,0.5-0.7l0.2,0.1
		l-0.2,0.6c-0.1,0.2-0.2,0.3-0.2,0.4c-0.1,0.1-0.2,0.1-0.4,0.1h-3v-4.3H-27.7z"/>
	<path id="XMLID_7_" class="st1" d="M-22.4,58.5c-0.3-0.1-0.5-0.2-0.7-0.3s-0.3-0.3-0.3-0.5v-0.9h0.2c0.1,0.5,0.2,0.9,0.5,1.2
		c0.3,0.2,0.6,0.4,1.1,0.4c0.3,0,0.6-0.1,0.7-0.2c0.2-0.1,0.3-0.3,0.3-0.6c0-0.2-0.1-0.4-0.2-0.5s-0.3-0.3-0.6-0.5l-1-0.6
		c-0.4-0.2-0.6-0.4-0.8-0.6c-0.2-0.2-0.2-0.5-0.2-0.8c0-0.4,0.2-0.8,0.5-1s0.8-0.4,1.3-0.4c0.3,0,0.6,0,0.9,0.1
		c0.3,0.1,0.5,0.2,0.7,0.3s0.3,0.3,0.3,0.5V55h-0.2c-0.1-0.5-0.3-0.9-0.5-1.2c-0.2-0.2-0.6-0.4-1-0.4c-0.3,0-0.5,0.1-0.7,0.2
		s-0.3,0.3-0.3,0.6c0,0.2,0.1,0.4,0.2,0.5c0.1,0.1,0.3,0.3,0.6,0.5l1,0.6c0.4,0.2,0.6,0.4,0.8,0.6c0.2,0.2,0.2,0.5,0.2,0.7
		c0,0.5-0.2,0.8-0.5,1.1s-0.8,0.4-1.5,0.4C-21.8,58.6-22.1,58.6-22.4,58.5z"/>
	<path id="XMLID_9_" class="st1" d="M-17.4,53.6H-18c-0.3,0-0.5,0.1-0.7,0.2s-0.2,0.4-0.2,0.7h-0.2v-0.7c0-0.4,0.2-0.6,0.7-0.6h3.8
		v0.4h-1.7v4.9h-1L-17.4,53.6L-17.4,53.6z"/>
	<path id="XMLID_11_" class="st1" d="M-11.1,58.3c-0.3-0.1-0.5-0.4-0.7-0.8l-0.1-0.5H-14l-0.7,1.5h-0.4l2.4-5.3h0.4l1.8,4.3
		c0.2,0.5,0.5,0.8,0.8,0.8v0.2c-0.1,0-0.2,0-0.4,0C-10.5,58.5-10.8,58.5-11.1,58.3z M-12.1,56.7l-0.9-2.1l-0.9,2.1H-12.1z"/>
	<path id="XMLID_14_" class="st1" d="M-8.6,53.6h-0.6c-0.3,0-0.5,0.1-0.7,0.2s-0.2,0.4-0.2,0.7h-0.2v-0.7c0-0.4,0.2-0.6,0.7-0.6h3.8
		v0.4h-1.7v4.9h-1L-8.6,53.6L-8.6,53.6z"/>
	<path id="XMLID_16_" class="st1" d="M-5.1,54.3c0-0.3,0-0.5-0.1-0.6s-0.2-0.2-0.4-0.2h-0.1v-0.2h3.5c0.5,0,0.7,0.2,0.7,0.6v0.7
		h-0.2c0-0.3-0.1-0.6-0.3-0.7s-0.4-0.2-0.7-0.2H-4v2h2v0.4h-2.1v2.2h1.4c0.3,0,0.6-0.1,0.8-0.2c0.2-0.1,0.4-0.4,0.5-0.7l0.2,0.1
		l-0.2,0.6c-0.1,0.2-0.2,0.3-0.2,0.4c-0.1,0.1-0.2,0.1-0.4,0.1h-3L-5.1,54.3L-5.1,54.3z"/>
	<path id="XMLID_18_" class="st1" d="M1.4,54.2c-0.1-0.3-0.2-0.5-0.4-0.6c-0.1-0.1-0.3-0.2-0.4-0.2v-0.2h0.3c0.4,0,0.7,0.1,0.9,0.2
		c0.3,0.1,0.5,0.4,0.6,0.8L3.5,57l0.7-2l-0.3-0.7c-0.1-0.3-0.2-0.5-0.4-0.6c-0.1-0.1-0.3-0.2-0.5-0.2v-0.2h0.3
		c0.4,0,0.7,0.1,0.9,0.2c0.3,0.1,0.5,0.4,0.6,0.8l1.1,2.9l1.4-3.8H8l-1.9,5.4H5.8l-1.2-3.1l-1.1,3.1H3.2L1.4,54.2z"/>
	<path id="XMLID_20_" class="st1" d="M9,58.4c-0.1-0.1-0.2-0.2-0.2-0.3s-0.1-0.4-0.1-0.6v-4.2h1v4.2c0,0.3,0,0.5,0.1,0.6
		s0.2,0.2,0.4,0.2h0.1v0.2h-1C9.3,58.5,9.1,58.5,9,58.4z"/>
	<path id="XMLID_22_" class="st1" d="M10.8,58.2l3-4.7H12c-0.3,0-0.5,0.1-0.7,0.2c-0.2,0.2-0.2,0.4-0.2,0.7h-0.2v-0.7
		c0-0.4,0.2-0.6,0.7-0.6h3.6L12.1,58h3.1v0.4h-4.4V58.2z"/>
	<path id="XMLID_24_" class="st1" d="M19.5,58.3c-0.3-0.1-0.5-0.4-0.7-0.8L18.6,57h-2.1l-0.7,1.5h-0.4l2.4-5.3h0.4l1.8,4.3
		c0.2,0.5,0.5,0.8,0.8,0.8v0.2c-0.1,0-0.2,0-0.4,0C20,58.5,19.7,58.5,19.5,58.3z M18.5,56.7l-0.9-2.1l-0.9,2.1H18.5z"/>
	<path id="XMLID_27_" class="st1" d="M24.2,58.3c-0.2-0.2-0.5-0.5-0.7-0.9l-0.8-1.3h-0.3v2.4h-1v-4.2c0-0.3,0-0.5-0.1-0.6
		s-0.2-0.2-0.4-0.2h-0.1v-0.2H23c0.5,0,1,0.1,1.5,0.3s0.7,0.6,0.7,1.1c0,0.4-0.1,0.7-0.4,0.9s-0.6,0.4-0.9,0.5l0.8,1.4
		c0.3,0.5,0.6,0.8,1,0.9v0.2c0,0-0.1,0-0.2,0.1c-0.1,0-0.2,0-0.3,0C24.7,58.6,24.4,58.5,24.2,58.3z M22.8,55.8
		c0.3,0,0.6-0.1,0.8-0.3c0.2-0.2,0.3-0.5,0.3-0.8c0-0.4-0.1-0.7-0.3-0.8s-0.5-0.3-0.8-0.3c-0.1,0-0.3,0-0.5,0.1v2.2h0.5V55.8z"/>
	<path id="XMLID_30_" class="st1" d="M26.2,54.3c0-0.3,0-0.5-0.1-0.6s-0.2-0.2-0.4-0.2h-0.1v-0.2h2.2c1.1,0,1.9,0.2,2.5,0.7
		s0.8,1.1,0.8,1.9c0,0.5-0.1,1-0.4,1.4c-0.2,0.4-0.6,0.7-1.1,0.9s-1,0.3-1.7,0.3h-1.7C26.2,58.5,26.2,54.3,26.2,54.3z M28.9,57.9
		c0.3-0.2,0.5-0.5,0.7-0.8c0.2-0.4,0.2-0.8,0.2-1.2c0-0.5-0.1-0.9-0.2-1.2c-0.2-0.3-0.4-0.6-0.7-0.8s-0.6-0.3-1-0.3
		c-0.2,0-0.4,0-0.7,0.1v4.5c0.1,0,0.2,0,0.3,0c0.1,0,0.1,0,0.2,0s0.1,0,0.1,0C28.3,58.2,28.6,58.1,28.9,57.9z"/>
	<path id="XMLID_33_" class="st1" d="M32.7,58.5c-0.3-0.1-0.5-0.2-0.7-0.3s-0.3-0.3-0.3-0.5v-0.9h0.2c0.1,0.5,0.2,0.9,0.5,1.2
		c0.3,0.2,0.6,0.4,1.1,0.4c0.3,0,0.6-0.1,0.7-0.2c0.2-0.1,0.3-0.3,0.3-0.6c0-0.2-0.1-0.4-0.2-0.5s-0.3-0.3-0.6-0.5l-1-0.6
		c-0.4-0.2-0.6-0.4-0.8-0.6c-0.2-0.2-0.2-0.5-0.2-0.8c0-0.4,0.2-0.8,0.5-1s0.8-0.4,1.3-0.4c0.3,0,0.6,0,0.9,0.1s0.5,0.2,0.7,0.3
		s0.3,0.3,0.3,0.5V55h-0.2c-0.1-0.5-0.3-0.9-0.5-1.2c-0.2-0.2-0.6-0.4-1-0.4c-0.3,0-0.5,0.1-0.7,0.2s-0.3,0.3-0.3,0.6
		c0,0.2,0.1,0.4,0.2,0.5s0.3,0.3,0.6,0.5l1,0.6c0.4,0.2,0.6,0.4,0.8,0.6c0.2,0.2,0.2,0.5,0.2,0.7c0,0.5-0.2,0.8-0.5,1.1
		s-0.8,0.4-1.5,0.4C33.2,58.6,32.9,58.6,32.7,58.5z"/>
</g>
</svg>
